{"title":"Twilight Saga 2008 (Hindi-Eng)Bluray 720p Dual Audio - HeNry[~KS","uid":6942473,"size":943305695,"categoryP":"video","categoryS":"hd___movies","magnet":"?xt=urn:btih:653e574a71563ead40f5e19dfd12bef7641dcfbf&amp;dn=Twilight+Saga+2008+%28Hindi-Eng%29Bluray+720p+Dual+Audio+-+HeNry%5B%7EKS&amp;tr=udp%3A%2F%2Ftracker.openbittorrent.com%3A80&amp;tr=udp%3A%2F%2Fopen.demonii.com%3A1337&amp;tr=udp%3A%2F%2Ftracker.coppersurfer.tk%3A6969&amp;tr=udp%3A%2F%2Fexodus.desync.com%3A6969","seeders":2,"leechers":0,"uploader":"rcbcsk","files":-1,"time":1326099776,"description":"Format : Matroska\nFormat version : Version 2\nFile size : 894 MiB\nDuration : 2h 1mn\nOverall bit rate : 1 025 Kbps\nMovie name : Twilight Saga 2008\n\nVideo\nID : 1\nFormat : AVC\nFormat/Info : Advanced Video Codec\nFormat profile : &lt;a class=&quot;__cf_email__&quot; href=&quot;/cdn-cgi/l/email-protection&quot; data-cfemail=&quot;90d8f9f7f8d0dca3bea1&quot;&gt;[email&amp;#160;protected]&lt;/a&gt;&lt;script cf-hash='f9e31' type=&quot;text/javascript&quot;&gt;\n/* &lt;![CDATA[ */!function(){try{var t=&quot;currentScript&quot;in document?document.currentScript:function(){for(var t=document.getElementsByTagName(&quot;script&quot;),e=t.length;e--;)if(t[e].getAttribute(&quot;cf-hash&quot;))return t[e]}();if(t&amp;&amp;t.previousSibling){var e,r,n,i,c=t.previousSibling,a=c.getAttribute(&quot;data-cfemail&quot;);if(a){for(e=&quot;&quot;,r=parseInt(a.substr(0,2),16),n=2;a.length-n;n+=2)i=parseInt(a.substr(n,2),16)^r,e+=String.fromCharCode(i);e=document.createTextNode(e),c.parentNode.replaceChild(e,c)}}}catch(u){}}();/* ]]&gt; */&lt;/script&gt;\nFormat settings, CABAC : Yes\nFormat settings, ReFrames : 5 frames\nMuxing mode : Header stripping\nCodec ID : V_MPEG4/ISO/AVC\nDuration : 2h 1mn\nBit rate : 768 Kbps\nWidth : 1 280 pixels\nHeight : 528 pixels\nDisplay aspect ratio : 2.40:1\nFrame rate : 23.976 fps\nTitle : Ripped By Henry Kharay\nWriting library : x264\n\nAudio #1\nID : 2\nFormat : MPEG Audio\nCodec ID/Hint : MP3\nDuration : 2h 1mn\nBit rate mode : Variable\nBit rate : 128 Kbps\nChannel(s) : 2 channels\nSampling rate : 48.0 KHz\nStream size : 112 MiB\nTitle : HeNry[~KSRR~]\nWriting library : LAME3.98.4\nLanguage : Hindi\n\nAudio #2\nID : 3\nFormat : MPEG Audio\nCodec ID/Hint : MP3\nDuration : 2h 1mn\nBit rate mode : Variable\nBit rate : 128 Kbps\nChannel(s) : 2 channels\nSampling rate : 48.0 KHz\nStream size : 112 MiB\nTitle : HeNry[~KSRR~]\nWriting library : LAME3.98.4\nLanguage : English\n\nScreens\n &lt;a href=&quot;\nhttp://www.postimg.com/57000/photo-56524.jpg&quot; rel=&quot;nofollow&quot; target=&quot;_NEW&quot;&gt;\nhttp://www.postimg.com/57000/photo-56524.jpg&lt;/a&gt;\n &lt;a href=&quot;\nhttp://www.postimg.com/57000/photo-56526.jpg&quot; rel=&quot;nofollow&quot; target=&quot;_NEW&quot;&gt;\nhttp://www.postimg.com/57000/photo-56526.jpg&lt;/a&gt;\n &lt;a href=&quot;\nhttp://www.postimg.com/57000/photo-56528.jpg&quot; rel=&quot;nofollow&quot; target=&quot;_NEW&quot;&gt;\nhttp://www.postimg.com/57000/photo-56528.jpg&lt;/a&gt;\n &lt;a href=&quot;\nhttp://www.postimg.com/57000/photo-56529.jpg&quot; rel=&quot;nofollow&quot; target=&quot;_NEW&quot;&gt;\nhttp://www.postimg.com/57000/photo-56529.jpg&lt;/a&gt;\n &lt;a href=&quot;\nhttp://www.postimg.com/57000/photo-56530.jpg&quot; rel=&quot;nofollow&quot; target=&quot;_NEW&quot;&gt;\nhttp://www.postimg.com/57000/photo-56530.jpg&lt;/a&gt;\n &lt;a href=&quot;\nhttp://www.postimg.com/57000/photo-56531.jpg&quot; rel=&quot;nofollow&quot; target=&quot;_NEW&quot;&gt;\nhttp://www.postimg.com/57000/photo-56531.jpg&lt;/a&gt;","torrent":{"xt":"urn:btih:653e574a71563ead40f5e19dfd12bef7641dcfbf","amp;dn":"Twilight+Saga+2008+%28Hindi-Eng%29Bluray+720p+Dual+Audio+-+HeNry%5B%7EKS","amp;tr":["udp%3A%2F%2Ftracker.openbittorrent.com%3A80","udp%3A%2F%2Fopen.demonii.com%3A1337","udp%3A%2F%2Ftracker.coppersurfer.tk%3A6969","udp%3A%2F%2Fexodus.desync.com%3A6969"],"infoHash":"653e574a71563ead40f5e19dfd12bef7641dcfbf","infoHashBuffer":{"type":"Buffer","data":[101,62,87,74,113,86,62,173,64,245,225,157,253,18,190,247,100,29,207,191]},"announce":[],"urlList":[]}}